<svg id="Capa_1" enable-background="new 0 0 512 512" height="512" viewBox="0 0 512 512" width="512" xmlns="http://www.w3.org/2000/svg"><g><g><g><g><path d="m472.318 500.327v-128.464c0-4.818 0-11.673-17.776-11.673h-431.062c-11.765 0-21.337 9.572-21.337 21.337v109.137c0 11.764 9.572 21.336 21.337 21.336h431.062c17.776 0 17.776-6.855 17.776-11.673z" fill="#a1e42c"/><path d="m488.52 360.19h-33.978c7.654 0 13.859 6.205 13.859 13.859v124.092c0 7.654-6.205 13.859-13.859 13.859h33.978c11.765 0 21.337-9.571 21.337-21.337v-109.136c0-11.765-9.572-21.337-21.337-21.337z" fill="#95d528"/></g><g><g><g><g><path d="m362.843 277.723 30.582-158.304h-310.065l29.779 154.148c2.523 13.058 13.953 22.492 27.253 22.492h190.454c25.166-.001 30.502-10.598 31.997-18.336z" fill="#fc5692"/><path d="m387.877 119.418-29.779 154.148c-2.523 13.058-13.953 22.492-27.253 22.492h41.069c13.3 0 24.73-9.434 27.253-22.492l29.779-154.148z" fill="#fb3580"/><path d="m441.2 124.279h-370.4c-6.09 0-11.027-4.937-11.027-11.027v-14.87c0-6.09 4.937-11.027 11.027-11.027h370.4c6.09 0 11.027 4.937 11.027 11.027v14.87c0 6.09-4.937 11.027-11.027 11.027z" fill="#fb0363"/></g></g></g><g><g><path d="m162.774 101.127c-2.041 0-4.081-.787-5.624-2.358-3.051-3.106-3.006-8.097.1-11.147l82.442-80.975c8.991-8.864 23.638-8.863 32.639.01l81.967 80.981c3.097 3.059 3.127 8.049.068 11.147-3.06 3.095-8.05 3.126-11.147.067l-81.961-80.975c-2.892-2.85-7.61-2.851-10.509.006l-82.453 80.986c-1.534 1.507-3.529 2.258-5.522 2.258z" fill="#e10355"/></g></g></g><g><g><path d="m169.472 260.188c-3.743 0-7.017-2.745-7.572-6.558l-13.042-89.574c-.61-4.188 2.291-8.077 6.478-8.686 4.186-.606 8.076 2.291 8.686 6.478l13.042 89.574c.61 4.188-2.291 8.077-6.478 8.686-.374.053-.746.08-1.114.08z" fill="#f4f8f8"/></g><g><path d="m227.154 260.187c-4.061 0-7.448-3.19-7.647-7.291l-4.347-89.574c-.205-4.226 3.055-7.818 7.281-8.024 4.261-.21 7.819 3.056 8.024 7.282l4.347 89.574c.205 4.226-3.055 7.818-7.281 8.024-.126.006-.251.009-.377.009z" fill="#f4f8f8"/></g><g><path d="m284.846 260.187c-.125 0-.251-.003-.378-.009-4.226-.206-7.486-3.798-7.281-8.024l4.347-89.574c.205-4.227 3.782-7.474 8.024-7.282 4.226.206 7.486 3.798 7.281 8.024l-4.347 89.574c-.199 4.101-3.586 7.291-7.646 7.291z" fill="#f4f8f8"/></g><g><path d="m342.528 260.188c-.367 0-.739-.026-1.113-.081-4.187-.61-7.088-4.498-6.478-8.686l13.042-89.574c.61-4.187 4.493-7.098 8.686-6.478 4.187.61 7.088 4.498 6.478 8.686l-13.043 89.575c-.555 3.813-3.83 6.558-7.572 6.558z" fill="#f4f8f8"/></g></g></g></g><g fill="#f4f8f8"><path d="m200.081 389.635c-.025 0-.05 0-.075 0-4.231.041-7.628 3.505-7.587 7.736l.521 53.938-40.206-58.22c-1.905-2.759-5.383-3.96-8.584-2.961-3.201.998-5.382 3.962-5.382 7.314v77.452c0 4.232 3.43 7.662 7.662 7.662s7.662-3.43 7.662-7.662v-52.875l38.403 55.609c2.332 3.37 6.19 4.811 9.829 3.677 3.732-1.165 6.143-4.709 6.143-9.101l-.725-74.982c-.041-4.205-3.464-7.587-7.661-7.587z"/><path d="m394.509 389.635c-.025 0-.05 0-.075 0-4.231.041-7.628 3.505-7.587 7.736l.521 53.939-40.206-58.221c-1.905-2.759-5.384-3.957-8.584-2.961-3.201.998-5.382 3.962-5.382 7.314v77.452c0 4.232 3.43 7.662 7.662 7.662s7.662-3.43 7.662-7.662v-52.875l38.404 55.611c2.332 3.368 6.192 4.807 9.829 3.675 3.732-1.166 6.142-4.709 6.142-9.101l-.725-74.982c-.042-4.205-3.464-7.587-7.661-7.587z"/><path d="m266.423 467.052c-.014 0-.029 0-.044 0-6.807.038-14.141.065-19.387.066v-69.706c0-4.232-3.43-7.662-7.662-7.662-4.231 0-7.662 3.43-7.662 7.662v77.302c0 3.732 2.689 6.92 6.366 7.551 1.849.319 25.645.126 28.43.111 4.231-.024 7.642-3.473 7.619-7.705-.023-4.217-3.449-7.619-7.66-7.619z"/><path d="m302.917 389.75c-4.231 0-7.662 3.43-7.662 7.662v77.368c0 4.232 3.43 7.662 7.662 7.662s7.662-3.43 7.662-7.662v-77.368c0-4.233-3.43-7.662-7.662-7.662z"/><path d="m462.099 466.764h-24.64v-23.008h22.259c4.231 0 7.662-3.43 7.662-7.662s-3.43-7.662-7.662-7.662h-22.259v-23.007h24.64c4.231 0 7.662-3.43 7.662-7.662s-3.43-7.662-7.662-7.662h-32.302c-4.231 0-7.662 3.43-7.662 7.662v76.662c0 4.232 3.43 7.662 7.662 7.662h32.302c4.231 0 7.662-3.43 7.662-7.662s-3.431-7.661-7.662-7.661z"/><path d="m74.929 389.75c-25.555 0-46.346 20.79-46.346 46.345s20.791 46.346 46.346 46.346 46.345-20.791 46.345-46.346-20.79-46.345-46.345-46.345zm0 77.367c-17.106 0-31.022-13.917-31.022-31.023 0-17.105 13.917-31.022 31.022-31.022s31.022 13.917 31.022 31.022c0 17.107-13.916 31.023-31.022 31.023z"/></g></g></svg>