<?xml version="1.0" encoding="iso-8859-1"?>
<!-- Generator: Adobe Illustrator 19.0.0, SVG Export Plug-In . SVG Version: 6.00 Build 0)  -->
<svg version="1.1" id="Capa_1" xmlns="http://www.w3.org/2000/svg" xmlns:xlink="http://www.w3.org/1999/xlink" x="0px" y="0px"
	 viewBox="0 0 512 512" style="enable-background:new 0 0 512 512;" xml:space="preserve">
<path style="fill:#FF8087;" d="M49.548,388.129h66.065V123.871H49.548C22.184,123.871,0,146.055,0,173.42v165.161
	C0,365.945,22.184,388.129,49.548,388.129z"/>
<path style="fill:#E6646E;" d="M33.032,338.581V173.419c0-27.365,22.183-49.548,49.548-49.548H49.548
	C22.183,123.871,0,146.054,0,173.419V338.58c0,27.365,22.183,49.548,49.548,49.548H82.58
	C55.216,388.129,33.032,365.946,33.032,338.581z"/>
<path style="fill:#A0E6FF;" d="M462.452,123.871h-66.065v264.258h66.065c27.365,0,49.548-22.184,49.548-49.548V173.42
	C512,146.055,489.816,123.871,462.452,123.871z"/>
<rect x="115.61" y="123.87" style="fill:#5D5360;" width="280.77" height="264.26"/>
<path style="fill:#D2BEFF;" d="M367.484,363.355H144.516c-2.28,0-4.129-1.849-4.129-4.129V152.774c0-2.28,1.849-4.129,4.129-4.129
	h222.968c2.28,0,4.129,1.849,4.129,4.129v206.452C371.613,361.506,369.764,363.355,367.484,363.355z"/>
<circle style="fill:#5D5360;" cx="57.806" cy="206.45" r="24.774"/>
<path style="fill:#4B3F4E;" d="M70.194,218.839c-13.682,0-24.774-11.092-24.774-24.774c0-3.631,0.824-7.053,2.227-10.16
	c-8.602,3.885-14.614,12.495-14.614,22.547c0,13.682,11.092,24.774,24.774,24.774c10.052,0,18.662-6.012,22.547-14.614
	C77.246,218.015,73.824,218.839,70.194,218.839z"/>
<circle style="fill:#5D5360;" cx="454.19" cy="305.55" r="24.774"/>
<path style="fill:#4B3F4E;" d="M466.581,317.935c-13.682,0-24.774-11.092-24.774-24.774c0-3.631,0.824-7.053,2.227-10.16
	c-8.602,3.885-14.614,12.495-14.614,22.547c0,13.682,11.092,24.774,24.774,24.774c10.052,0,18.662-6.012,22.547-14.614
	C473.633,317.111,470.211,317.935,466.581,317.935z"/>
<circle style="fill:#E6CDFF;" cx="256" cy="256" r="74.32"/>
<g>
	<path style="fill:#5D5360;" d="M41.29,305.548h-8.258c-4.565,0-8.258-3.694-8.258-8.258s3.694-8.258,8.258-8.258h8.258
		c4.565,0,8.258,3.694,8.258,8.258S45.855,305.548,41.29,305.548z"/>
	<path style="fill:#5D5360;" d="M57.806,330.323c-4.565,0-8.258-3.694-8.258-8.258v-8.258c0-4.565,3.694-8.258,8.258-8.258
		s8.258,3.694,8.258,8.258v8.258C66.064,326.629,62.371,330.323,57.806,330.323z"/>
	<path style="fill:#5D5360;" d="M470.71,206.452h8.258c4.565,0,8.258,3.694,8.258,8.258s-3.694,8.258-8.258,8.258h-8.258
		c-4.565,0-8.258-3.694-8.258-8.258S466.145,206.452,470.71,206.452z"/>
	<path style="fill:#5D5360;" d="M429.419,206.452h8.258c4.565,0,8.258,3.694,8.258,8.258s-3.694,8.258-8.258,8.258h-8.258
		c-4.565,0-8.258-3.694-8.258-8.258S424.855,206.452,429.419,206.452z"/>
	<path style="fill:#5D5360;" d="M454.193,222.968c4.565,0,8.258,3.694,8.258,8.258v8.258c0,4.565-3.694,8.258-8.258,8.258
		s-8.258-3.694-8.258-8.258v-8.258C445.935,226.661,449.629,222.968,454.193,222.968z"/>
	<path style="fill:#5D5360;" d="M454.193,181.677c4.565,0,8.258,3.694,8.258,8.258v8.258c0,4.565-3.694,8.258-8.258,8.258
		s-8.258-3.694-8.258-8.258v-8.258C445.935,185.371,449.629,181.677,454.193,181.677z"/>
	<path style="fill:#5D5360;" d="M82.581,305.548h-8.258c-4.565,0-8.258-3.694-8.258-8.258s3.694-8.258,8.258-8.258h8.258
		c4.565,0,8.258,3.694,8.258,8.258S87.145,305.548,82.581,305.548z"/>
	<path style="fill:#5D5360;" d="M57.806,289.032c-4.565,0-8.258-3.694-8.258-8.258v-8.258c0-4.565,3.694-8.258,8.258-8.258
		s8.258,3.694,8.258,8.258v8.258C66.064,285.339,62.371,289.032,57.806,289.032z"/>
</g>
<g>
</g>
<g>
</g>
<g>
</g>
<g>
</g>
<g>
</g>
<g>
</g>
<g>
</g>
<g>
</g>
<g>
</g>
<g>
</g>
<g>
</g>
<g>
</g>
<g>
</g>
<g>
</g>
<g>
</g>
</svg>
