<svg id="Capa_1" enable-background="new 0 0 512 512" height="512" viewBox="0 0 512 512" width="512" xmlns="http://www.w3.org/2000/svg"><g><g fill="#d9e7ec"><path d="m470.964 133.825v-23.998c0-7.362-6.024-13.386-13.386-13.386h-65.441c-7.362 0-13.386 6.024-13.386 13.386v23.998z"/><path d="m106.181 96.442h-38.273c-7.362 0-13.386 6.024-13.386 13.386v23.998h65.044v-23.998c0-7.363-6.023-13.386-13.385-13.386z"/><path d="m195.486 133.825v-46.121c0-4.755-3.89-8.645-8.645-8.645h-23.983c-4.755 0-8.645 3.89-8.645 8.645v46.121z"/></g><path d="m424.568 96.442h-32.43c-7.362 0-13.386 6.024-13.386 13.386v23.998h32.43v-23.998c0-7.363 6.024-13.386 13.386-13.386z" fill="#c4d2dd"/><path d="m100.338 96.442h-32.43c-7.362 0-13.385 6.024-13.385 13.386v23.998h32.43v-23.998c0-7.363 6.023-13.386 13.385-13.386z" fill="#c4d2dd"/><path d="m183.719 79.059h-20.861c-4.755 0-8.645 3.89-8.645 8.645v46.121h20.861v-46.121c.001-4.755 3.891-8.645 8.645-8.645z" fill="#c4d2dd"/><path d="m498.614 131.765h-485.228c-7.362 0-13.386 6.023-13.386 13.385v75.983h204.362c15.519-7.845 33.061-12.27 51.638-12.27s36.119 4.425 51.638 12.27h204.362v-75.983c0-7.362-6.023-13.385-13.386-13.385z" fill="#e8f9fc"/><g><path d="m58.843 131.765h-45.457c-7.362 0-13.386 6.023-13.386 13.385v75.983h45.457v-75.983c0-7.362 6.024-13.385 13.386-13.385z" fill="#d9e7ec"/></g><path d="m185.335 401.452c-21.993-20.884-35.708-50.402-35.708-83.125 0-44.722 25.618-83.457 62.977-102.344h-212.604v185.469z" fill="#ffb640"/><path d="m0 215.983h45.457v185.469h-45.457z" fill="#ffa90f"/><path d="m364.434 318.327c0 32.723-13.715 62.241-35.708 83.125h183.274v-185.469h-210.543c37.359 18.886 62.977 57.621 62.977 102.344z" fill="#ffb640"/><path d="m0 419.556c0 7.362 6.024 13.386 13.386 13.386h242.614c-31.64 0-48.953-12.821-69.692-33.55h-186.308z" fill="#e8f9fc"/><path d="m45.457 419.556v-20.164h-45.457v20.164c0 7.362 6.024 13.386 13.386 13.386h45.457c-7.362-.001-13.386-6.024-13.386-13.386z" fill="#d9e7ec"/><path d="m330.843 399.391c-20.74 20.729-43.203 33.55-74.843 33.55h242.614c7.362 0 13.386-6.024 13.386-13.386v-20.164z" fill="#e8f9fc"/><circle cx="256" cy="318.327" fill="#7b6c79" r="114.614"/><path d="m181.961 318.327c0-56.377 40.704-103.246 94.327-112.824-6.585-1.176-13.365-1.79-20.288-1.79-63.3 0-114.614 51.315-114.614 114.614s51.314 114.614 114.614 114.614c6.923 0 13.703-.614 20.288-1.79-53.623-9.578-94.327-56.447-94.327-112.824z" fill="#665e68"/><path d="m477.285 157.824h-68.965c-3.829 0-6.933 3.104-6.933 6.933v18.234c0 3.829 3.104 6.933 6.933 6.933h68.965c3.829 0 6.933-3.104 6.933-6.933v-18.234c0-3.829-3.104-6.933-6.933-6.933z" fill="#7b6c79"/><path d="m435.382 182.991v-18.234c0-3.829 3.104-6.933 6.933-6.933h-33.996c-3.829 0-6.933 3.104-6.933 6.933v18.234c0 3.829 3.104 6.933 6.933 6.933h33.996c-3.829 0-6.933-3.104-6.933-6.933z" fill="#665e68"/><path d="m63.686 182.991v-18.234c0-3.829-3.104-6.933-6.933-6.933h-19.141c-3.829 0-6.933 3.104-6.933 6.933v18.234c0 3.829 3.104 6.933 6.933 6.933h19.141c3.829 0 6.933-3.104 6.933-6.933z" fill="#62ddfc"/><g><path d="m158.261 181.6h-63.582c-4.267 0-7.726-3.459-7.726-7.726s3.459-7.726 7.726-7.726h63.582c4.267 0 7.726 3.459 7.726 7.726s-3.459 7.726-7.726 7.726z" fill="#7b6c79"/></g><circle cx="256" cy="318.327" fill="#62ddfc" r="81.15"/><path d="m215.425 318.327c0-37.743 25.901-69.551 60.863-78.582-6.487-1.676-13.285-2.568-20.288-2.568-44.746 0-81.15 36.404-81.15 81.15s36.404 81.15 81.15 81.15c7.003 0 13.801-.892 20.288-2.568-34.962-9.031-60.863-40.839-60.863-78.582z" fill="#00d2fc"/><circle cx="256" cy="318.327" fill="#00d2fc" r="40.575"/><path d="m256 318.327c0-14.985 8.172-28.09 20.288-35.116-5.973-3.464-12.9-5.459-20.288-5.459-22.373 0-40.575 18.202-40.575 40.575s18.202 40.575 40.575 40.575c7.388 0 14.315-1.995 20.288-5.459-12.116-7.027-20.288-20.131-20.288-35.116z" fill="#00c2fb"/></g></svg>