<svg id="Icons" enable-background="new 0 0 64 64" height="512" viewBox="0 0 64 64" width="512" xmlns="http://www.w3.org/2000/svg"><g><g><path d="m16 40-12 12h8v8l12-12z" fill="#fab400"/></g><g><path d="m18 42-2-2-12 12h4z" fill="#dc9600"/></g><g><path d="m14 52h-2v8l2-2z" fill="#dc9600"/></g><g><path d="m48 40 12 12h-8v8l-12-12z" fill="#fab400"/></g><g><path d="m44 48 6-6-2-2-8 8 12 12v-4z" fill="#dc9600"/></g><g><circle cx="32" cy="28" fill="#dc9600" r="24"/></g><g><circle cx="32" cy="28" fill="#fab400" r="22"/></g><g><circle cx="32" cy="28" fill="#f0f0f0" r="18"/></g><g><path d="m18 22h6v16h-6z" fill="#505050"/></g><g><path d="m18 22h2v16h-2z" fill="#3c3c3c"/></g><g><path d="m34 20v-6h-2c-1.105 0-2 .895-2 2v4c0 2.209-1.791 4-4 4h-2v12h18c2.209 0 4-1.791 4-4v-8c0-2.209-1.791-4-4-4z" fill="#f0c8a0"/></g><g><circle cx="21" cy="35" fill="#fab400" r="1"/></g></g></svg>